<?xml version="1.0" encoding="UTF-8"?><svg xmlns="http://www.w3.org/2000/svg" viewBox="0 0 58 52.33"><defs><style>.d{fill:#fff;}</style></defs><g id="a"/><g id="b"><g id="c"><g><circle class="d" cx="10.88" cy="44.92" r="7.41"/><path class="d" d="M43.5,6.62c-.76,0-1.5,.08-2.22,.19-2.56-4.08-7.1-6.81-12.28-6.81s-9.71,2.72-12.28,6.81c-.73-.11-1.47-.19-2.22-.19C6.49,6.62,0,13.11,0,21.12s6.49,14.5,14.5,14.5c.64,0,1.26-.06,1.87-.13,2.49,4.41,7.21,7.38,12.63,7.38s10.14-2.98,12.63-7.38c.61,.08,1.24,.13,1.87,.13,8.01,0,14.5-6.49,14.5-14.5s-6.49-14.5-14.5-14.5Z"/></g></g></g></svg>